<svg width="24" height="18" viewBox="0 0 24 18" fill="none" xmlns="http://www.w3.org/2000/svg">
<path d="M23.0305 0H0.969469C0.434062 0 0 0.422681 0 0.944049C0 1.46546 0.434062 1.8881 0.969469 1.8881H23.0305C23.566 1.8881 24 1.46546 24 0.944049C24 0.422681 23.566 0 23.0305 0Z" transform="translate(0 8.05595)" fill="#979797"/>
<path d="M2.34055 9L9.92788 1.61157C10.3065 1.24289 10.3065 0.645159 9.92788 0.276477C9.54927 -0.092159 8.93544 -0.092159 8.55683 0.276477L0.283957 8.33243C-0.0946523 8.70111 -0.0946523 9.29884 0.283957 9.66752L8.55683 17.7235C8.74611 17.9078 8.99427 18 9.24238 18C9.49049 18 9.73864 17.9078 9.92793 17.7235C10.3065 17.3548 10.3065 16.7571 9.92793 16.3884L2.34055 9Z" transform="translate(0.000488281)" fill="#979797"/>
</svg>
