<svg width="298" height="298" viewBox="0 0 298 298" fill="none" xmlns="http://www.w3.org/2000/svg">
<path id="Vector" d="M148.581 73.8859C155.991 73.8859 163.15 74.9648 169.907 76.9746C192.251 64.0819 207.288 39.9533 207.288 12.3143C207.288 12.2234 207.288 12.1327 207.288 12.0418C189.279 4.29252 169.432 0 148.581 0C66.5218 0 0 66.4837 0 148.496C0 230.508 66.5218 296.991 148.581 296.991C230.639 296.991 297.161 230.508 297.161 148.496C297.161 96.7187 270.647 51.1312 230.448 24.5552C230.47 25.3013 230.481 26.0503 230.481 26.8019C230.481 53.5702 216.376 77.0458 195.189 90.2105C212.284 103.883 223.233 124.912 223.233 148.496C223.233 189.702 189.81 223.106 148.581 223.106C107.351 223.106 73.9279 189.702 73.9279 148.496C73.9279 107.29 107.351 73.8859 148.581 73.8859Z" transform="matrix(-0.982303 0.187299 -0.187521 -0.982261 322.594 266.723)" fill="#3193F5" fill-opacity="0.04"/>
</svg>
