<svg width="18" height="18" viewBox="0 0 18 18" fill="none" xmlns="http://www.w3.org/2000/svg">
<path fill-rule="evenodd" clip-rule="evenodd" d="M10.2208 8.99986L17.7471 1.47366C18.0843 1.13652 18.0843 0.58998 17.7471 0.252849C17.41 -0.0842829 16.8635 -0.0842829 16.5263 0.252849L9 7.77905L1.47368 0.253999C1.13654 -0.0831323 0.589989 -0.0831323 0.252853 0.253999C-0.0842842 0.591131 -0.0842842 1.13767 0.252853 1.47481L7.77917 9.00101L0.254003 16.5261C-0.0831336 16.8632 -0.0831336 17.4097 0.254003 17.7469C0.423147 17.9149 0.642919 18 0.863841 18C1.08476 18 1.30569 17.916 1.47368 17.7469L9 10.2207L16.5263 17.7469C16.6955 17.9149 16.9152 18 17.1362 18C17.3571 18 17.578 17.916 17.746 17.7469C18.0831 17.4097 18.0831 16.8632 17.746 16.5261L10.2208 8.99986Z" fill="#CDCDD6"/>
</svg>
