<svg width="8" height="8" viewBox="0 0 8 8" fill="none" xmlns="http://www.w3.org/2000/svg">
<path fill-rule="evenodd" clip-rule="evenodd" d="M7.448 0.0948486C7.57397 -0.0316162 7.77905 -0.0316162 7.90503 0.0948486C8.03101 0.220825 8.03101 0.425415 7.90503 0.55188L4.45679 4.00012L7.90503 7.44885C8.03101 7.57532 8.03101 7.77991 7.90503 7.90588C7.84155 7.96887 7.75952 8.00061 7.67651 8.00061C7.59351 8.00061 7.51147 7.96887 7.448 7.90588L3.99878 4.45715L0.551514 7.90491C0.488037 7.9679 0.406006 7.99963 0.322998 7.99963C0.23999 7.99963 0.157959 7.9679 0.0944824 7.90491C-0.0314941 7.77893 -0.0314941 7.57434 0.0944824 7.44788L3.54175 4.00012L0.0944824 0.552856C-0.0314941 0.426392 -0.0314941 0.221802 0.0944824 0.0958252C0.220459 -0.0306396 0.425537 -0.0306396 0.551514 0.0958252L3.99878 3.54358L7.448 0.0948486Z" transform="translate(0.000976562 -0.000488281)" fill="#333351" fill-opacity="0.5"/>
</svg>
