<svg width="15" height="16" viewBox="0 0 15 16" fill="none" xmlns="http://www.w3.org/2000/svg">
<path fill-rule="evenodd" clip-rule="evenodd" d="M4.5 0C3.39551 0 2.5 0.895508 2.5 2V2.5H2C0.895508 2.5 0 3.39551 0 4.5V13.5C0 14.6045 0.895508 15.5 2 15.5H10C11.1045 15.5 12 14.6045 12 13.5V13H12.5C13.6045 13 14.5 12.1045 14.5 11V2C14.5 0.895508 13.6045 0 12.5 0H4.5ZM12 12H12.5C13.0522 12 13.5 11.5522 13.5 11V2C13.5 1.44775 13.0522 1 12.5 1H4.5C3.94775 1 3.5 1.44775 3.5 2V2.5H10C11.1045 2.5 12 3.39551 12 4.5V12ZM2 3.5H10C10.5522 3.5 11 3.94775 11 4.5V13.5C11 14.0522 10.5522 14.5 10 14.5H2C1.44775 14.5 1 14.0522 1 13.5V4.5C1 3.94775 1.44775 3.5 2 3.5Z" fill="#3193F5"/>
</svg>
