<svg width="14" height="14" viewBox="0 0 14 14" fill="none" xmlns="http://www.w3.org/2000/svg">
<path d="M10.0001 0H1.50002C0.671579 0 0 0.671573 0 1.5V10C0 10.8284 0.671579 11.5 1.50002 11.5H10.0001C10.8285 11.5 11.5001 10.8284 11.5001 10V1.5C11.5001 0.671573 10.8285 0 10.0001 0ZM10.5001 10C10.5001 10.2762 10.2762 10.5 10.0001 10.5H1.50002C1.22386 10.5 1 10.2762 1 10V1.5C1 1.22385 1.22386 0.999991 1.50002 0.999991H10.0001C10.2762 0.999991 10.5001 1.22385 10.5001 1.5V10Z" transform="translate(0 2.5)" fill="#C8C8DC"/>
<path d="M10.5001 0H1.50002C0.671579 0 0 0.671573 0 1.5C0 1.77615 0.22386 2.00001 0.500015 2.00001C0.77617 2.00001 1 1.77615 1 1.5C1 1.22385 1.22386 0.999991 1.50002 0.999991H10.5001C10.7763 0.999991 11.0001 1.22385 11.0001 1.5V10.5C11.0001 10.7762 10.7763 11 10.5001 11C10.224 11 10.0001 11.2239 10.0001 11.5C10.0001 11.7762 10.224 12 10.5001 12C11.3285 12 12.0001 11.3285 12.0001 10.5V1.5C12.0001 0.671573 11.3285 0 10.5001 0Z" transform="translate(2)" fill="#C8C8DC"/>
</svg>
