<svg width="158" height="158" viewBox="0 0 158 158" fill="none" xmlns="http://www.w3.org/2000/svg">
<rect width="158" height="158" fill="#E5E5E5"/>
<g id="02_Select type of login" clip-path="url(#clip0)">
<rect width="1600" height="900" fill="#FAFAFC" transform="translate(-255 -330)"/>
<g id="Group" opacity="0.5">
<g id="Group_2">
<g id="Group_3">
<path id="Vector" d="M136.123 136.598L5.38269 61.0359C-2.60147 56.3758 -1.60346 48.2204 7.71139 42.8945L74.2461 4.4479C83.561 -0.87803 97.6996 -1.54377 105.684 3.11642L236.424 78.8445C244.409 83.5047 243.411 91.6601 234.096 96.986L167.561 135.433C158.246 140.759 144.274 141.258 136.123 136.598Z" transform="translate(-217.165 151.993)" fill="white" stroke="#DDDDDD" stroke-width="2" stroke-miterlimit="10" stroke-linecap="round" stroke-linejoin="round"/>
<path id="Vector_2" d="M136.123 136.598L5.38269 61.0359C-2.60147 56.3758 -1.60346 48.2204 7.71139 42.8945L74.2461 4.4479C83.561 -0.87803 97.6996 -1.54377 105.684 3.11642L236.424 78.8445C244.409 83.5047 243.411 91.6601 234.096 96.986L167.561 135.433C158.246 140.759 144.274 141.258 136.123 136.598Z" transform="translate(-217.164 147)" fill="white" stroke="#DDDDDD" stroke-width="2" stroke-miterlimit="10" stroke-linecap="round" stroke-linejoin="round"/>
<path id="Vector_3" d="M160.016 106.352L5.07619e-06 13.9806L24.4515 7.93626e-08L184.301 92.3717L160.016 106.352Z" transform="translate(-161.548 148.286)" fill="#DDDDDD"/>
</g>
</g>
</g>
<g id="card_1">
<g id="Rectangle 3.9" filter="url(#filter0_d)">
<rect width="263" height="362" rx="50" transform="translate(-52 -42)" fill="white"/>
</g>
<g id="Ease of Use">
<path id="Vector_4" d="M68.33 85.7452L4.20059 48.7174C-0.64164 45.9291 -1.90564 30.7333 3.67083 27.4617L66.4619 2.66503C72.0384 -0.56003 80.4867 -0.903912 85.3289 1.88432L150.787 28.2053C155.62 30.9935 153.687 46.5704 148.101 49.7955L87.1878 84.9644C81.602 88.1895 73.1629 88.5427 68.33 85.7452Z" transform="translate(2.37158 46.8726)" fill="white" stroke="#DCDCE6" stroke-width="2" stroke-miterlimit="10"/>
<path id="Vector_5" d="M67.4052 85.7544L3.27575 48.7267C-1.56649 45.9291 -0.971666 41.059 4.6048 37.834L65.537 2.66503C71.1135 -0.560029 79.5619 -0.903911 84.4041 1.88432L148.534 38.9121C153.366 41.7003 152.762 46.5797 147.177 49.8048L86.2629 84.9644C80.6772 88.1895 72.2381 88.5427 67.4052 85.7544Z" transform="translate(3.29517 35.2271)" fill="white" stroke="#DCDCE6" stroke-width="2" stroke-miterlimit="10"/>
<path id="Vector_6" d="M20.3448 70.468C31.581 70.468 40.6896 54.6932 40.6896 35.234C40.6896 15.7748 31.581 0 20.3448 0C9.10869 0 0 15.7748 0 35.234C0 54.6932 9.10869 70.468 20.3448 70.468Z" transform="translate(43.8013 98.0497) rotate(-89.69)" fill="#005FB5"/>
<path id="Vector_7" d="M19.1645 66.3786C29.7487 66.3786 38.3289 51.5192 38.3289 33.1893C38.3289 14.8594 29.7487 0 19.1645 0C8.58023 0 0 14.8594 0 33.1893C0 51.5192 8.58023 66.3786 19.1645 66.3786Z" transform="translate(45.8538 95.9647) rotate(-89.69)" fill="url(#paint0_linear)"/>
<path id="Vector_8" d="M19.1645 66.3786C29.7487 66.3786 38.3289 51.5192 38.3289 33.1893C38.3289 14.8594 29.7487 0 19.1645 0C8.58023 0 0 14.8594 0 33.1893C0 51.5192 8.58023 66.3786 19.1645 66.3786Z" transform="translate(45.8538 88.8347) rotate(-89.69)" fill="white"/>
<path id="Vector_9" d="M17.7518 61.4899C27.5558 61.4899 35.5035 47.7249 35.5035 30.7449C35.5035 13.765 27.5558 0 17.7518 0C7.94774 0 -2.26907e-06 13.765 -2.26907e-06 30.7449C-2.26907e-06 47.7249 7.94774 61.4899 17.7518 61.4899Z" transform="translate(48.3054 87.4352) rotate(-89.69)" fill="url(#paint1_linear)"/>
<path id="Vector_10" d="M4.91659 3.42779L4.06153 2.40544C3.92721 2.27704 3.82709 2.11712 3.77028 1.9402C3.71347 1.76328 3.70177 1.57498 3.73623 1.39238C3.91659 1.01038 4.22597 0.704282 4.60988 0.528026C5.19833 0.142204 5.89682 -0.0405753 6.59882 0.00755725C7.38141 0.147591 8.12943 0.437966 8.80153 0.862618C9.47861 1.24161 10.1035 1.70713 10.6604 2.24744L9.59153 2.75862C9.06177 2.43332 8.3833 2.03367 7.57471 1.56897C7.3132 1.39467 7.0241 1.26583 6.71964 1.18791C6.47942 1.1607 6.23765 1.22363 6.04118 1.3645C5.82741 1.48532 5.72517 1.59685 5.72517 1.70838C5.75961 1.88726 5.85088 2.05025 5.98541 2.17308L6.80329 3.1025C6.94412 3.23092 7.05031 3.39277 7.11204 3.57308C7.17377 3.7534 7.18905 3.94636 7.15647 4.13414C6.97448 4.51821 6.66138 4.82472 6.27353 4.9985C5.68018 5.38351 4.98205 5.57509 4.27529 5.54685C3.4645 5.41993 2.68903 5.12556 1.99824 4.6825C1.28453 4.27568 0.614874 3.79602 1.41817e-06 3.25121L1.11529 2.70285L3.22506 3.97615C3.50821 4.15842 3.82373 4.28463 4.15447 4.34791C4.39954 4.36298 4.6432 4.30125 4.85153 4.17132C5.0653 4.0412 5.17683 3.92968 5.18612 3.81815C5.14194 3.66179 5.04715 3.5245 4.91659 3.42779Z" transform="translate(62.6426 59.196)" fill="white"/>
<path id="Vector_11" d="M8.69 3.71765L6.74753 2.59306L1.44059 5.688L-2.83634e-06 4.85153L5.30694 1.78447L3.36447 0.669178L4.51694 0L9.85177 3.08565L8.69 3.71765Z" transform="translate(69.6575 61.8058)" fill="white"/>
<path id="Vector_12" d="M5.86459 3.93665L3.634 2.64477L1.46847 3.34183L2.26907e-06 2.49606L7.97435 0.0610044C8.12012 0.008776 8.27571 -0.0102727 8.42977 0.00524197C8.57706 0.0172976 8.71987 0.0617272 8.848 0.135359L10.2049 0.916062C10.4838 1.07406 10.5209 1.24136 10.3351 1.41794L6.11553 6.065L4.65635 5.20065L5.86459 3.93665ZM6.66388 3.11877L8.09518 1.65959L8.56918 1.23207L8.31824 1.08336L7.95577 1.22277L7.56541 1.35289L5.03741 2.18006L6.66388 3.11877Z" transform="translate(72.6697 65.8994)" fill="white"/>
<path id="Vector_13" d="M5.13035 6.68247L3.60611 5.75306L5.09318 4.34965C5.24189 4.19165 5.29765 4.06153 5.26976 3.9593C5.24188 3.85706 5.13965 3.74553 4.94447 3.634L3.9407 3.03917L1.40341 4.53553L0 3.71765L6.50588 -2.83634e-07C7.14718 0.297411 8.00224 0.762115 9.07106 1.38482C9.94471 1.8867 10.428 2.31424 10.5116 2.6953C10.5953 3.07635 10.2886 3.45741 9.58223 3.87564C9.15429 4.13345 8.67544 4.29518 8.17883 4.34965C7.68026 4.38841 7.18026 4.29546 6.72894 4.08012H6.68247C7.07283 4.43329 7.05424 4.79576 6.68247 5.17682L5.13035 6.68247ZM5.03741 2.43506L6.07835 3.03917C6.35854 3.22022 6.67648 3.33467 7.00777 3.37376C7.3394 3.35639 7.66033 3.25048 7.93718 3.06706C8.29965 2.86259 8.46694 2.686 8.45765 2.5373C8.44835 2.38859 8.25318 2.2027 7.87212 1.97964L6.82188 1.38482L5.03741 2.43506Z" transform="translate(79.4648 68.6092)" fill="white"/>
<path id="Vector_14" d="M8.71788 3.69906L6.77541 2.57447L1.46847 5.64153L0 4.85153L5.30694 1.79376L3.36447 0.669177L4.52624 -1.13454e-06L9.88894 2.99271L8.71788 3.69906Z" transform="translate(86.9009 71.825)" fill="white"/>
</g>
</g>
</g>
<defs>
<filter id="filter0_d" x="-92" y="-62" width="343" height="442" filterUnits="userSpaceOnUse" color-interpolation-filters="sRGB">
<feFlood flood-opacity="0" result="BackgroundImageFix"/>
<feColorMatrix in="SourceAlpha" type="matrix" values="0 0 0 0 0 0 0 0 0 0 0 0 0 0 0 0 0 0 255 0"/>
<feOffset dy="20"/>
<feGaussianBlur stdDeviation="20"/>
<feColorMatrix type="matrix" values="0 0 0 0 0.5185 0 0 0 0 0.58255 0 0 0 0 0.61 0 0 0 0.05 0"/>
<feBlend mode="normal" in2="BackgroundImageFix" result="effect1_dropShadow"/>
<feBlend mode="normal" in="SourceGraphic" in2="effect1_dropShadow" result="shape"/>
</filter>
<linearGradient id="paint0_linear" x2="1" gradientUnits="userSpaceOnUse" gradientTransform="translate(52.1776 -0.184494) scale(66.3879) rotate(89.69)">
<stop stop-color="#2F60ED"/>
<stop offset="1" stop-color="#3392FF"/>
</linearGradient>
<linearGradient id="paint1_linear" x2="1" gradientUnits="userSpaceOnUse" gradientTransform="translate(48.3245 -0.163403) scale(61.4806) rotate(89.69)">
<stop stop-color="#2F80ED"/>
<stop offset="1" stop-color="#33ADFF"/>
</linearGradient>
<clipPath id="clip0">
<rect width="1600" height="900" fill="white" transform="translate(-255 -330)"/>
</clipPath>
</defs>
</svg>
