<svg width="18" height="15" viewBox="0 0 18 15" fill="none" xmlns="http://www.w3.org/2000/svg">
<g opacity="0.7">
<path d="M17.8416 13.3607L9.94445 0.522848C9.74487 0.198394 9.38652 0 8.99997 0C8.61343 0 8.25508 0.19836 8.0555 0.522848L0.158413 13.3607C-0.0469705 13.6946 -0.0530526 14.1111 0.142557 14.4505C0.338167 14.7901 0.705093 15 1.10285 15H16.8971C17.2949 15 17.6618 14.79 17.8574 14.4505C18.053 14.111 18.047 13.6946 17.8416 13.3607ZM9.00588 4.44076C9.45943 4.44076 9.8432 4.69157 9.8432 5.13612C9.8432 6.49262 9.68039 8.44197 9.68039 9.79847C9.68039 10.1519 9.28499 10.3 9.00588 10.3C8.63379 10.3 8.31977 10.1518 8.31977 9.79847C8.31977 8.44197 8.157 6.49262 8.157 5.13612C8.157 4.69157 8.52909 4.44076 9.00588 4.44076ZM9.01752 12.8421C8.50585 12.8421 8.12205 12.4318 8.12205 11.9644C8.12205 11.4856 8.50582 11.0867 9.01752 11.0867C9.49431 11.0867 9.90135 11.4856 9.90135 11.9644C9.90135 12.4318 9.49431 12.8421 9.01752 12.8421Z" fill="#C8C8DC"/>
</g>
</svg>
