<svg width="159" height="158" viewBox="0 0 159 158" fill="none" xmlns="http://www.w3.org/2000/svg">
<rect width="159" height="158" fill="#E5E5E5"/>
<g id="02_Select type of login" clip-path="url(#clip0)">
<rect width="1600" height="900" fill="#FAFAFC" transform="translate(-564 -330)"/>
<g id="Group" opacity="0.5">
<g id="Group_2">
</g>
</g>
<g id="card_1">
<g id="Rectangle 3.9" filter="url(#filter0_d)">
<rect width="263" height="362" rx="50" transform="translate(-51 -42)" fill="white"/>
</g>
<g id="Security">
<path id="Vector" d="M68.5837 86.0904L4.19411 48.914C-0.657424 46.1257 -1.90284 30.809 3.70152 27.5375L66.7063 2.67572C72.2828 -0.558637 80.7869 -0.911813 85.6478 1.89501L151.366 28.3182C156.218 31.1064 154.276 46.7577 148.671 49.9921L87.5159 85.3097C81.9115 88.5348 73.4353 88.888 68.5837 86.0904Z" transform="translate(1.854 49.3992)" fill="white" stroke="#DCDCE6" stroke-width="2" stroke-miterlimit="10"/>
<path id="Vector_2" d="M67.6626 86.0486L3.27293 48.8721C-1.5786 46.0839 -0.965191 41.1673 4.63916 37.933L65.7852 2.68037C71.3616 -0.563279 79.8658 -0.90716 84.7266 1.89037L149.107 39.0668C153.958 41.8551 153.354 46.7624 147.75 49.9967L86.5947 85.3144C80.9903 88.5023 72.5141 88.8554 67.6626 86.0486Z" transform="translate(2.77344 37.749)" fill="white" stroke="#DCDCE6" stroke-width="2" stroke-miterlimit="10"/>
<path id="Vector_3" d="M40.8769 32.2923L2.42711 10.0793C-1.16971 8.00676 -0.714298 4.38205 3.43088 1.98417C7.57606 -0.41371 13.8589 -0.673943 17.4464 1.39865L55.8962 23.6023C59.493 25.6749 59.0469 29.2996 54.8924 31.6975C50.7472 34.1139 44.4644 34.3742 40.8769 32.2923Z" transform="translate(30.4707 76.8207)" fill="url(#paint0_linear)" stroke="white" stroke-miterlimit="10"/>
<path id="Vector_4" d="M4.898 1.30118L2.85329 1.45918L4.45188 2.16553L3.81988 2.528L2.57447 1.59859L2.35141 2.76035L1.422 2.61165L2.16553 1.53353L0.241646 1.94247L1.41817e-07 1.52424L2.01682 1.37553L0.483295 0.594824L1.106 0.232354L2.30494 1.16177L2.56518 5.67268e-07L3.49459 0.139414L2.78824 1.22682L4.64706 0.799295L4.898 1.30118Z" transform="translate(43.605 84.4463)" fill="white"/>
<path id="Vector_5" d="M4.898 1.31976L2.844 1.47776L4.44259 2.18412L3.81059 2.54659L2.56518 1.61717L2.30494 2.82541L1.37553 2.6767L2.11906 1.59859L0.204472 2.00753L4.25451e-07 1.50565L2.02612 1.35694L0.446118 0.641296L1.07812 0.278826L2.30494 1.16176L2.55588 0L3.48529 0.139413L2.76965 1.22682L4.62847 0.799295L4.898 1.31976Z" transform="translate(47.4878 86.6677)" fill="white"/>
<path id="Vector_6" d="M4.898 1.25471L2.85329 1.41271L4.44259 2.11906L3.81059 2.48153L2.57447 1.55212L2.35141 2.71388L1.422 2.56517L2.10976 1.53353L0.195175 1.94247L-4.25451e-07 1.44059L2.01682 1.29188L0.455413 0.594826L1.08741 0.232356L2.28635 1.16177L2.54659 3.11997e-06L3.476 0.139409L2.76035 1.22683L4.61918 0.799291L4.898 1.25471Z" transform="translate(51.4023 88.9726)" fill="white"/>
<path id="Vector_7" d="M4.84223 1.29188L2.79753 1.44988L4.39612 2.15624L3.76412 2.51871L2.51871 1.58929L2.30494 2.75106L1.37553 2.60236L2.11906 1.52424L0.195177 1.93318L-1.7018e-06 1.4313L1.93318 1.29188L0.371764 0.594823L1.00376 0.232353L2.20271 1.16177L2.45365 5.67268e-07L3.38306 0.139414L2.6767 1.22682L4.53553 0.799295L4.84223 1.29188Z" transform="translate(55.2954 91.1846)" fill="white"/>
<path id="Vector_8" d="M4.8887 1.2733L2.8347 1.43129L4.43329 2.13765L3.80129 2.50012L2.55589 1.57071L2.30494 2.76035L1.37553 2.61164L2.10976 1.53353L0.195175 1.94247L-7.09085e-07 1.44059L2.01682 1.29188L0.455413 0.594822L1.08741 0.232352L2.28636 1.16176L2.53729 -1.13454e-06L3.4667 0.139412L2.74176 1.18036L4.60059 0.75282L4.8887 1.2733Z" transform="translate(59.1362 93.4338)" fill="white"/>
<path id="Vector_9" d="M4.85153 1.30117L2.80682 1.45918L4.40541 2.16553L3.77341 2.528L2.528 1.59859L2.30494 2.76035L1.37553 2.61165L2.11906 1.53353L0.195178 1.94247L1.98544e-06 1.44059L2.01682 1.29189L0.464708 0.594826L1.09671 0.232356L2.28635 1.16177L2.54659 3.40361e-06L3.476 0.13941L2.76964 1.22683L4.62847 0.799291L4.85153 1.30117Z" transform="translate(63.0464 95.6458)" fill="white"/>
<path id="Vector_10" d="M4.9073 1.21753L2.85329 1.37553L4.45188 2.08188L3.81988 2.44435L2.57447 1.51494L2.3607 2.67671L1.43129 2.528L2.17482 1.44988L0.204469 1.94247L-2.55271e-06 1.44059L2.02612 1.29189L0.464703 0.594826L1.0967 0.232356L2.29565 1.16177L2.54659 3.40361e-06L3.476 0.139409L2.76035 1.22683L4.61917 0.799291L4.9073 1.21753Z" transform="translate(66.8784 97.9694)" fill="white"/>
<path id="Vector_11" d="M4.84224 1.30117L2.79753 1.45918L4.39612 2.16553L3.76412 2.528L2.51871 1.59859L2.29564 2.75106L1.36623 2.61165L2.10976 1.53353L0.195178 1.94247L2.55271e-06 1.44059L2.01682 1.29188L0.455412 0.594826L1.08741 0.232356L2.28635 1.16177L2.54659 3.11997e-06L3.476 0.139409L2.76035 1.22683L4.61917 0.799291L4.84224 1.30117Z" transform="translate(70.8162 100.126)" fill="white"/>
<path id="Vector_12" d="M39.7941 17.7131C45.2497 14.5624 46.7647 9.68302 43.1214 5.73302C37.043 -0.856509 22.6186 -1.76733 14.3096 3.00984L5.20139 8.27031C-1.77849 12.304 -1.72273 18.8656 5.30363 22.9271C12.3393 26.9794 23.6967 27.0073 30.6859 22.9271L39.7941 17.6667V17.7131ZM35.147 5.71443C39.6175 8.29819 39.6454 12.4713 35.147 15.0085L18.966 5.68655C23.4086 3.12137 30.6394 3.13066 35.1099 5.71443H35.147Z" transform="translate(67.373 61.5285)" fill="url(#paint1_linear)"/>
<path id="Vector_13" d="M8.51341 -2.55271e-06L-5.67268e-07 4.9073L1.50565 5.78094L3.40165 6.86835L10.4187 2.82541L11.9151 1.96106L8.51341 -2.55271e-06Z" transform="translate(79.666 73.5443)" fill="url(#paint2_linear)"/>
<path id="Vector_14" d="M39.8114 17.7085C45.2671 14.5578 46.782 9.68765 43.1387 5.72835C37.0604 -0.85188 22.6359 -1.772 14.327 3.01447L5.21873 8.27494C-1.77044 12.3086 -1.73327 18.8702 5.29308 22.9225C12.3287 26.984 23.6861 27.0026 30.6753 22.9225L39.7836 17.662L39.8114 17.7085ZM35.1644 5.71906C39.6348 8.30282 39.6627 12.4759 35.1644 15.0132L18.9833 5.69118C23.4259 3.126 30.6567 3.13529 35.1272 5.74694L35.1644 5.71906Z" transform="translate(67.354 58.8472)" fill="url(#paint3_linear)" stroke="white" stroke-miterlimit="10"/>
<path id="Vector_15" d="M8.51341 -1.98544e-06L-5.67268e-07 4.91659L1.50565 5.78094L3.40165 6.87765L10.4187 2.82541L11.9151 1.96106L8.51341 -1.98544e-06Z" transform="translate(79.666 70.8583)" fill="url(#paint4_linear)" stroke="white" stroke-miterlimit="10"/>
</g>
</g>
</g>
<defs>
<filter id="filter0_d" x="-91" y="-62" width="343" height="442" filterUnits="userSpaceOnUse" color-interpolation-filters="sRGB">
<feFlood flood-opacity="0" result="BackgroundImageFix"/>
<feColorMatrix in="SourceAlpha" type="matrix" values="0 0 0 0 0 0 0 0 0 0 0 0 0 0 0 0 0 0 255 0"/>
<feOffset dy="20"/>
<feGaussianBlur stdDeviation="20"/>
<feColorMatrix type="matrix" values="0 0 0 0 0.5185 0 0 0 0 0.58255 0 0 0 0 0.61 0 0 0 0.05 0"/>
<feBlend mode="normal" in2="BackgroundImageFix" result="effect1_dropShadow"/>
<feBlend mode="normal" in="SourceGraphic" in2="effect1_dropShadow" result="shape"/>
</filter>
<linearGradient id="paint0_linear" x2="1" gradientUnits="userSpaceOnUse" gradientTransform="translate(0.00134816 -12.3055) scale(58.3206)">
<stop stop-color="#2F80ED"/>
<stop offset="1" stop-color="#33ADFF"/>
</linearGradient>
<linearGradient id="paint1_linear" x2="1" gradientUnits="userSpaceOnUse" gradientTransform="translate(0.00597592 -9.56045) scale(45.1044)">
<stop stop-color="#2F60ED"/>
<stop offset="1" stop-color="#3392FF"/>
</linearGradient>
<linearGradient id="paint2_linear" x2="1" gradientUnits="userSpaceOnUse" gradientTransform="translate(1014.45 521.445) scale(152.751 88.0523)">
<stop stop-color="#2F60ED"/>
<stop offset="1" stop-color="#3392FF"/>
</linearGradient>
<linearGradient id="paint3_linear" x2="1" gradientUnits="userSpaceOnUse" gradientTransform="translate(3245.46 1364.63) scale(2189.96 1260.6)">
<stop stop-color="#2F80ED"/>
<stop offset="1" stop-color="#33ADFF"/>
</linearGradient>
<linearGradient id="paint4_linear" x2="1" gradientUnits="userSpaceOnUse" gradientTransform="translate(1014.45 502.275) scale(152.751 88.1714)">
<stop stop-color="#2F60ED"/>
<stop offset="1" stop-color="#3392FF"/>
</linearGradient>
<clipPath id="clip0">
<rect width="1600" height="900" fill="white" transform="translate(-564 -330)"/>
</clipPath>
</defs>
</svg>
