<svg width="21" height="17" viewBox="0 0 21 17" fill="none" xmlns="http://www.w3.org/2000/svg">
<path d="M0.500175 1.00757C0.51227 1.01615 0.524488 1.02479 0.536829 1.0335C1.08232 1.4185 1.86975 1.93051 2.84252 2.44247C4.78255 3.46347 7.48969 4.5 10.5 4.5C13.5103 4.5 16.2175 3.46347 18.1575 2.44247C19.1303 1.93051 19.9177 1.4185 20.4632 1.0335C20.4756 1.02475 20.4878 1.01607 20.5 1.00744V1.44804C19.5722 2.27159 17.9247 3.17879 16.0798 3.89679C14.134 4.65408 12.0563 5.16667 10.5 5.16667C8.60104 5.16667 6.487 4.67773 4.62311 3.94124C2.8441 3.2383 1.35057 2.33278 0.500255 1.46778L0.500175 1.00757Z" transform="translate(0 7)" stroke="#3193F5"/>
<path d="M0 0L1.3125 3.33333" transform="translate(3.9375 13.6666) scale(1 -1)" stroke="#3193F5"/>
<path d="M0 0V3.33333" transform="translate(10.5 15) scale(1 -1)" stroke="#3193F5"/>
<path d="M0 0L1.3125 3.33333" transform="translate(17.0625 13.6666) rotate(-180)" stroke="#3193F5"/>
</svg>
