<svg width="21" height="17" viewBox="0 0 21 17" fill="none" xmlns="http://www.w3.org/2000/svg">
<mask id="path-1-inside-1" fill="white">
<path d="M21 6.84166C21 6.84166 16.299 13.6833 10.5 13.6833C4.70101 13.6833 0 6.84166 0 6.84166C0 6.84166 4.70101 0 10.5 0C16.299 0 21 6.84166 21 6.84166Z"/>
</mask>
<path d="M21 6.84166L21.8242 7.40797L22.2133 6.84166L21.8242 6.27534L21 6.84166ZM0 6.84166L-0.82419 6.27534L-1.21331 6.84166L-0.82419 7.40797L0 6.84166ZM21 6.84166C20.1758 6.27534 20.176 6.27514 20.1761 6.27496C20.1761 6.27493 20.1762 6.27478 20.1762 6.27472C20.1763 6.27462 20.1763 6.27462 20.1762 6.27472C20.1761 6.27493 20.1757 6.27554 20.175 6.27655C20.1736 6.27858 20.171 6.28221 20.1674 6.28739C20.1601 6.29775 20.1485 6.31431 20.1325 6.33667C20.1005 6.38139 20.0513 6.44921 19.9858 6.53683C19.8547 6.71218 19.6587 6.96624 19.4048 7.27273C18.8958 7.88719 18.1605 8.70468 17.2556 9.51925C15.4118 11.179 13.0226 12.6833 10.5 12.6833V14.6833C13.7764 14.6833 16.6372 12.7668 18.5937 11.0057C19.5889 10.1099 20.3913 9.21695 20.945 8.5486C21.2224 8.21368 21.4389 7.93324 21.5876 7.73443C21.6619 7.63498 21.7194 7.55581 21.7591 7.50031C21.779 7.47256 21.7944 7.4507 21.8053 7.43518C21.8107 7.42741 21.815 7.42123 21.8182 7.41668C21.8198 7.4144 21.821 7.41253 21.822 7.41108C21.8225 7.41035 21.823 7.40973 21.8233 7.40921C21.8235 7.40895 21.8237 7.40864 21.8238 7.40851C21.824 7.40823 21.8242 7.40797 21 6.84166ZM10.5 12.6833C7.97741 12.6833 5.58823 11.179 3.74441 9.51925C2.83949 8.70468 2.10424 7.88719 1.59524 7.27273C1.34134 6.96624 1.14532 6.71218 1.01422 6.53683C0.948708 6.44921 0.899516 6.38139 0.867527 6.33667C0.851535 6.31431 0.839854 6.29775 0.832592 6.28739C0.828961 6.28221 0.826436 6.27858 0.825031 6.27655C0.824328 6.27554 0.823906 6.27493 0.823765 6.27472C0.823695 6.27462 0.823695 6.27462 0.823765 6.27472C0.823801 6.27478 0.823907 6.27493 0.823924 6.27496C0.824048 6.27514 0.82419 6.27534 0 6.84166C-0.82419 7.40797 -0.824012 7.40823 -0.823817 7.40851C-0.823728 7.40864 -0.823514 7.40895 -0.823335 7.40921C-0.822978 7.40973 -0.822549 7.41035 -0.822047 7.41108C-0.821043 7.41253 -0.819751 7.4144 -0.818172 7.41668C-0.815014 7.42123 -0.810708 7.42741 -0.805267 7.43518C-0.794385 7.4507 -0.778962 7.47256 -0.759106 7.50031C-0.719401 7.55581 -0.661932 7.63498 -0.587576 7.73443C-0.438939 7.93324 -0.222389 8.21368 0.055049 8.5486C0.608702 9.21695 1.41114 10.1099 2.40635 11.0057C4.36278 12.7668 7.2236 14.6833 10.5 14.6833V12.6833ZM0 6.84166C0.82419 7.40797 0.824048 7.40818 0.823924 7.40835C0.823907 7.40838 0.823801 7.40853 0.823765 7.40859C0.823695 7.40869 0.823695 7.40869 0.823765 7.40859C0.823906 7.40838 0.824328 7.40777 0.825031 7.40676C0.826436 7.40473 0.828961 7.4011 0.832592 7.39592C0.839854 7.38556 0.851535 7.369 0.867527 7.34664C0.899516 7.30192 0.948708 7.2341 1.01422 7.14648C1.14532 6.97113 1.34134 6.71707 1.59524 6.41058C2.10424 5.79612 2.83949 4.97863 3.74441 4.16406C5.58823 2.50433 7.97741 1 10.5 1V-1C7.2236 -1 4.36278 0.916499 2.40635 2.67759C1.41114 3.57344 0.608702 4.46636 0.055049 5.13471C-0.222389 5.46963 -0.438939 5.75008 -0.587576 5.94888C-0.661932 6.04833 -0.719401 6.1275 -0.759106 6.183C-0.778962 6.21075 -0.794385 6.23261 -0.805267 6.24813C-0.810708 6.2559 -0.815014 6.26208 -0.818172 6.26663C-0.819751 6.26891 -0.821043 6.27078 -0.822047 6.27223C-0.822549 6.27296 -0.822978 6.27358 -0.823335 6.2741C-0.823514 6.27436 -0.823728 6.27467 -0.823817 6.2748C-0.824012 6.27508 -0.82419 6.27534 0 6.84166ZM10.5 1C13.0226 1 15.4118 2.50433 17.2556 4.16406C18.1605 4.97863 18.8958 5.79612 19.4048 6.41058C19.6587 6.71707 19.8547 6.97113 19.9858 7.14648C20.0513 7.2341 20.1005 7.30192 20.1325 7.34664C20.1485 7.369 20.1601 7.38556 20.1674 7.39592C20.171 7.4011 20.1736 7.40473 20.175 7.40676C20.1757 7.40777 20.1761 7.40838 20.1762 7.40859C20.1763 7.40869 20.1763 7.40869 20.1762 7.40859C20.1762 7.40853 20.1761 7.40838 20.1761 7.40835C20.176 7.40818 20.1758 7.40797 21 6.84166C21.8242 6.27534 21.824 6.27508 21.8238 6.2748C21.8237 6.27467 21.8235 6.27436 21.8233 6.2741C21.823 6.27358 21.8225 6.27296 21.822 6.27223C21.821 6.27078 21.8198 6.26891 21.8182 6.26663C21.815 6.26208 21.8107 6.2559 21.8053 6.24813C21.7944 6.23261 21.779 6.21075 21.7591 6.183C21.7194 6.1275 21.6619 6.04833 21.5876 5.94888C21.4389 5.75008 21.2224 5.46963 20.945 5.13471C20.3913 4.46636 19.5889 3.57344 18.5937 2.67759C16.6372 0.916499 13.7764 -1 10.5 -1V1Z" transform="translate(0 2.98511)" fill="#D8D8EC" mask="url(#path-1-inside-1)"/>
<ellipse cx="3.9375" cy="4.10499" rx="3.9375" ry="4.10499" transform="translate(6.5625 5.7218)" fill="#D8D8EC"/>
<path d="M0 0L1.3125 2.73666" transform="translate(3.9375 2.98511)" stroke="#D8D8EC"/>
<path d="M0 0V3.42083" transform="translate(10.5 0.452881)" stroke="#D8D8EC"/>
<path d="M0 0L1.3125 2.73666" transform="translate(17.0625 2.98511) scale(-1 1)" stroke="#D8D8EC"/>
</svg>
