<svg width="24" height="24" viewBox="0 0 24 24" fill="none" xmlns="http://www.w3.org/2000/svg">
<g opacity="0.7">
<path d="M12 0C5.38292 0 0 5.38292 0 12C0 18.6171 5.38292 24 12 24C18.6171 24 24 18.6171 24 12C24 5.38292 18.6171 0 12 0ZM12.9231 18.9231C12.9231 19.4326 12.5095 19.8462 12 19.8462C11.4905 19.8462 11.0769 19.4326 11.0769 18.9231V18C11.0769 17.4905 11.4905 17.0769 12 17.0769C12.5095 17.0769 12.9231 17.4905 12.9231 18V18.9231ZM14.2495 11.3386C13.4317 11.8666 12.9231 12.8552 12.9231 13.9191V15.2308C12.9231 15.7403 12.5095 16.1538 12 16.1538C11.4905 16.1538 11.0769 15.7403 11.0769 15.2308V13.9191C11.0769 12.2086 11.8892 10.6638 13.2489 9.78738C13.9228 9.35262 14.3183 8.61462 14.3072 7.81339C14.2906 6.59723 13.2489 5.55554 12.0328 5.53892C11.4023 5.508 10.8226 5.766 10.3795 6.20262C9.93646 6.64015 9.69231 7.22354 9.69231 7.84615C9.69231 8.35569 9.27877 8.76923 8.76923 8.76923C8.25969 8.76923 7.84615 8.35569 7.84615 7.84615C7.84615 6.72554 8.28554 5.67554 9.08354 4.88862C9.86677 4.116 10.9002 3.69231 11.9991 3.69231C12.0189 3.69231 12.0388 3.69277 12.0591 3.69277C14.2855 3.72369 16.1225 5.56062 16.1534 7.78708C16.1737 9.22892 15.462 10.5568 14.2495 11.3386Z" fill="#C8C8DC"/>
</g>
</svg>
