<svg width="27" height="20" viewBox="0 0 27 20" fill="none" xmlns="http://www.w3.org/2000/svg">
<path d="M-0.15 3.00161V14.9984C-0.15 16.7417 1.34741 18.15 3.16643 18.15H13.3949C15.2139 18.15 16.7113 16.7417 16.7113 14.9984V13.0553C16.7113 12.6363 16.3561 12.3108 15.9341 12.3108C15.5122 12.3108 15.157 12.6363 15.157 13.0553V14.9984C15.157 15.9086 14.3701 16.6658 13.3898 16.6658H3.16643C2.18614 16.6658 1.39924 15.9086 1.39924 14.9984V3.00161C1.39924 2.09137 2.18614 1.33421 3.16643 1.33421H13.3949C14.3752 1.33421 15.1621 2.09137 15.1621 3.00161V4.94468C15.1621 5.36366 15.5173 5.68921 15.9392 5.68921C16.3612 5.68921 16.7164 5.36366 16.7164 4.94468V3.00161C16.7164 1.25825 15.219 -0.15 13.4 -0.15H3.16643C1.34757 -0.15 -0.15 1.25327 -0.15 3.00161Z" transform="translate(1 1)" fill="#C8C8DC" stroke="#C8C8DC" stroke-width="0.3"/>
<path d="M9.02955 9.23024C9.18145 9.37395 9.37694 9.44484 9.57578 9.44484C9.77487 9.44484 9.9706 9.37377 10.1226 9.2297L14.4006 5.17438C14.7077 4.88322 14.7077 4.41163 14.4006 4.12046L10.1226 0.065145C9.81997 -0.221715 9.33669 -0.221715 9.03408 0.0651451C8.72692 0.356312 8.72692 0.827899 9.03408 1.11907L11.9733 3.90532H0.627168C0.205255 3.90532 -0.15 4.23086 -0.15 4.64984C-0.15 5.06881 0.205254 5.39436 0.627168 5.39436H11.9682L9.03013 8.17953C9.02994 8.17971 9.02975 8.17989 9.02956 8.18007C8.72163 8.46647 8.72163 8.94384 9.02955 9.23024Z" transform="translate(11.5195 5.3501)" fill="#C8C8DC" stroke="#C8C8DC" stroke-width="0.3"/>
</svg>
