<svg width="253" height="28" viewBox="0 0 253 28" fill="none" xmlns="http://www.w3.org/2000/svg">
<path d="M40.3 21.108C38.992 21.108 37.948 20.934 37.168 20.586C36.388 20.238 35.8 19.578 35.404 18.606C35.008 17.634 34.81 16.218 34.81 14.358C34.81 12.498 35.008 11.082 35.404 10.11C35.812 9.126 36.406 8.454 37.186 8.094C37.966 7.734 39.004 7.554 40.3 7.554C41.608 7.554 42.646 7.734 43.414 8.094C44.194 8.454 44.782 9.126 45.178 10.11C45.574 11.082 45.772 12.498 45.772 14.358C45.772 16.218 45.574 17.634 45.178 18.606C44.782 19.578 44.194 20.238 43.414 20.586C42.646 20.934 41.608 21.108 40.3 21.108ZM40.3 18.714C41.056 18.714 41.626 18.606 42.01 18.39C42.406 18.162 42.688 17.742 42.856 17.13C43.024 16.506 43.108 15.582 43.108 14.358C43.108 13.086 43.024 12.144 42.856 11.532C42.688 10.908 42.406 10.488 42.01 10.272C41.626 10.056 41.056 9.948 40.3 9.948C39.556 9.948 38.986 10.056 38.59 10.272C38.206 10.488 37.924 10.908 37.744 11.532C37.564 12.156 37.474 13.098 37.474 14.358C37.474 15.594 37.558 16.518 37.726 17.13C37.894 17.742 38.17 18.162 38.554 18.39C38.95 18.606 39.532 18.714 40.3 18.714Z" fill="#3193F5"/>
<path d="M47.7379 7.68H53.3539C54.4699 7.68 55.3879 7.992 56.1079 8.616C56.8279 9.24 57.1879 10.452 57.1879 12.252C57.1879 15.372 55.9459 16.932 53.4619 16.932C53.0779 16.932 52.5799 16.902 51.9679 16.842C51.3559 16.77 50.8339 16.704 50.4019 16.644V21H47.7379V7.68ZM53.0479 14.538C53.5279 14.538 53.8879 14.358 54.1279 13.998C54.3799 13.638 54.5059 13.062 54.5059 12.27C54.5059 10.806 54.0379 10.074 53.1019 10.074H50.4019V14.538H53.0479Z" fill="#3193F5"/>
<path d="M62.1576 21.09C61.2936 21.09 60.5376 20.898 59.8896 20.514C59.2416 20.13 58.9176 19.344 58.9176 18.156V10.722C58.9176 9.642 59.2116 8.868 59.7996 8.4C60.3996 7.92 61.1196 7.68 61.9596 7.68C63.7956 7.68 65.7156 7.758 67.7196 7.914V10.146H62.7516C61.9716 10.146 61.5816 10.512 61.5816 11.244V13.17L66.8556 13.314V15.42L61.5816 15.564V17.4C61.5816 18.192 61.9536 18.588 62.6976 18.588H67.7196V20.82C66.1236 21 64.2696 21.09 62.1576 21.09Z" fill="#3193F5"/>
<path d="M69.7479 7.68H71.8899L77.4699 16.464V7.68H80.1339V21H77.9919L72.4299 12.216V21H69.7479V7.68Z" fill="#3193F5"/>
<path d="M86.9723 7.68H92.5883C93.7043 7.68 94.6223 7.992 95.3423 8.616C96.0623 9.24 96.4223 10.452 96.4223 12.252C96.4223 15.372 95.1803 16.932 92.6963 16.932C92.3123 16.932 91.8143 16.902 91.2023 16.842C90.5903 16.77 90.0683 16.704 89.6363 16.644V21H86.9723V7.68ZM92.2823 14.538C92.7623 14.538 93.1223 14.358 93.3623 13.998C93.6143 13.638 93.7403 13.062 93.7403 12.27C93.7403 10.806 93.2723 10.074 92.3363 10.074H89.6363V14.538H92.2823Z" fill="#3193F5"/>
<path d="M101.302 21C100.234 21 99.442 20.754 98.926 20.262C98.41 19.77 98.152 18.966 98.152 17.85V7.68H100.816V17.418C100.816 18.198 101.212 18.588 102.004 18.588H106.216V21H101.302Z" fill="#3193F5"/>
<path d="M111.115 7.68H114.481L118.657 21H115.885L115.039 18.21H110.503L109.675 21H106.939L111.115 7.68ZM114.409 15.816L112.771 9.966L111.133 15.816H114.409Z" fill="#3193F5"/>
<path d="M122.001 10.074H118.347V7.68H128.337V10.074H124.665V21H122.001V10.074Z" fill="#3193F5"/>
<path d="M129.599 10.722C129.599 9.642 129.893 8.868 130.481 8.4C131.081 7.92 131.801 7.68 132.641 7.68C135.029 7.68 136.949 7.758 138.401 7.914V10.146H133.379C133.019 10.146 132.743 10.248 132.551 10.452C132.359 10.644 132.263 10.896 132.263 11.208V13.494L137.537 13.638V15.744L132.263 15.888V21H129.599V10.722Z" fill="#3193F5"/>
<path d="M145.241 21.108C143.933 21.108 142.889 20.934 142.109 20.586C141.329 20.238 140.741 19.578 140.345 18.606C139.949 17.634 139.751 16.218 139.751 14.358C139.751 12.498 139.949 11.082 140.345 10.11C140.753 9.126 141.347 8.454 142.127 8.094C142.907 7.734 143.945 7.554 145.241 7.554C146.549 7.554 147.587 7.734 148.355 8.094C149.135 8.454 149.723 9.126 150.119 10.11C150.515 11.082 150.713 12.498 150.713 14.358C150.713 16.218 150.515 17.634 150.119 18.606C149.723 19.578 149.135 20.238 148.355 20.586C147.587 20.934 146.549 21.108 145.241 21.108ZM145.241 18.714C145.997 18.714 146.567 18.606 146.951 18.39C147.347 18.162 147.629 17.742 147.797 17.13C147.965 16.506 148.049 15.582 148.049 14.358C148.049 13.086 147.965 12.144 147.797 11.532C147.629 10.908 147.347 10.488 146.951 10.272C146.567 10.056 145.997 9.948 145.241 9.948C144.497 9.948 143.927 10.056 143.531 10.272C143.147 10.488 142.865 10.908 142.685 11.532C142.505 12.156 142.415 13.098 142.415 14.358C142.415 15.594 142.499 16.518 142.667 17.13C142.835 17.742 143.111 18.162 143.495 18.39C143.891 18.606 144.473 18.714 145.241 18.714Z" fill="#3193F5"/>
<path d="M152.679 7.68H158.187C159.363 7.68 160.287 7.998 160.959 8.634C161.643 9.258 161.985 10.362 161.985 11.946C161.985 13.062 161.793 13.89 161.409 14.43C161.037 14.97 160.527 15.378 159.879 15.654L162.363 21H159.645L157.503 16.068C156.927 16.068 156.207 16.056 155.343 16.032V21H152.679V7.68ZM157.719 13.926C158.235 13.926 158.631 13.782 158.907 13.494C159.183 13.194 159.321 12.678 159.321 11.946C159.321 11.238 159.183 10.752 158.907 10.488C158.631 10.212 158.235 10.074 157.719 10.074H155.343V13.926H157.719Z" fill="#3193F5"/>
<path d="M175.34 21L174.314 12.288L171.992 21H169.49L167.169 12.396L166.178 21H163.605L165.152 7.68H167.708L170.768 17.886L173.811 7.68H176.348L177.915 21H175.34Z" fill="#3193F5"/>
<path d="M14 6.96588C14.6983 6.96588 15.3728 7.0676 16.0095 7.25708C18.1148 6.04156 19.5317 3.76675 19.5317 1.16098C19.5317 1.1524 19.5317 1.14386 19.5317 1.13528C17.8348 0.404694 15.9647 0 14 0C6.26801 0 0 6.26801 0 14C0 21.732 6.26801 28 14 28C21.732 28 28 21.732 28 14C28 9.11853 25.5017 4.82059 21.7139 2.31503C21.716 2.38538 21.7171 2.45599 21.7171 2.52686C21.7171 5.05054 20.388 7.26379 18.3917 8.50494C20.0025 9.79398 21.0341 11.7765 21.0341 14C21.0341 17.8849 17.8848 21.0341 14 21.0341C10.1151 21.0341 6.96585 17.8849 6.96585 14C6.96585 10.1152 10.1151 6.96588 14 6.96588Z" fill="#3193F5"/>
<path d="M0 0H1.476L4.32 11.286L7.596 0H9.036L12.294 11.286L15.138 0H16.614L13.212 13.248H11.664L8.316 1.998L4.95 13.248H3.402L0 0Z" transform="translate(184.612 7.752)" fill="#3193F5" fill-opacity="0.4"/>
<path d="M21.745 0H23.581L28.117 13.248H26.641L25.309 9.468H19.981L18.685 13.248H17.209L21.745 0ZM24.949 8.172L22.663 1.26L20.341 8.172H24.949Z" transform="translate(184.612 7.752)" fill="#3193F5" fill-opacity="0.4"/>
<path d="M32.7759 13.248C31.9359 13.248 31.2819 13.05 30.8139 12.654C30.3459 12.246 30.1119 11.556 30.1119 10.584V0H31.5519V10.386C31.5519 10.974 31.6899 11.382 31.9659 11.61C32.2419 11.826 32.6139 11.934 33.0819 11.934H37.8339V13.248H32.7759Z" transform="translate(184.612 7.752)" fill="#3193F5" fill-opacity="0.4"/>
<path d="M42.356 13.248C41.516 13.248 40.862 13.05 40.394 12.654C39.926 12.246 39.692 11.556 39.692 10.584V0H41.132V10.386C41.132 10.974 41.27 11.382 41.546 11.61C41.822 11.826 42.194 11.934 42.662 11.934H47.414V13.248H42.356Z" transform="translate(184.612 7.752)" fill="#3193F5" fill-opacity="0.4"/>
<path d="M51.972 13.32C51.216 13.32 50.574 13.146 50.046 12.798C49.53 12.438 49.272 11.754 49.272 10.746V2.664C49.272 1.728 49.524 1.05 50.028 0.630001C50.532 0.21 51.15 0 51.882 0C53.802 0.0360003 55.296 0.0780003 56.364 0.126L57.426 0.162V1.314H52.242C51.222 1.314 50.712 1.842 50.712 2.898V6.03L56.634 6.12V7.218L50.712 7.308V10.422C50.712 11.034 50.856 11.448 51.144 11.664C51.432 11.88 51.822 11.988 52.314 11.988H57.426V13.14C55.146 13.26 53.328 13.32 51.972 13.32Z" transform="translate(184.612 7.752)" fill="#3193F5" fill-opacity="0.4"/>
<path d="M62.8425 1.296H58.7385V0H68.3505V1.296H64.2645V13.248H62.8425V1.296Z" transform="translate(184.612 7.752)" fill="#3193F5" fill-opacity="0.4"/>
</svg>
