<svg width="23" height="24" viewBox="0 0 23 24" fill="none" xmlns="http://www.w3.org/2000/svg">
<path d="M15.9752 15.6669C17.4907 14.0059 18.4362 11.7818 18.4362 9.33256C18.4362 4.19471 14.3068 0 9.21808 0C4.12937 0 0 4.19471 0 9.33256C0 14.4704 4.12937 18.6651 9.21808 18.6651C11.2897 18.6651 13.1945 17.9754 14.7378 16.807L21.5922 23.7466C21.7591 23.9155 21.9676 24 22.1762 24C22.3848 24 22.6072 23.9155 22.7602 23.7466C23.0799 23.4229 23.0799 22.888 22.7602 22.5502L15.9752 15.6669ZM1.66843 9.33256C1.66843 5.12374 5.047 1.68915 9.21808 1.68915C13.3753 1.68915 16.7677 5.10968 16.7677 9.33256C16.7677 13.5554 13.3892 16.976 9.21808 16.976C5.047 16.976 1.66843 13.5414 1.66843 9.33256Z" fill="#C8C8DC"/>
</svg>
