<svg width="158" height="158" viewBox="0 0 158 158" fill="none" xmlns="http://www.w3.org/2000/svg">
<rect width="158" height="158" fill="#E5E5E5"/>
<g id="02_Select type of login" clip-path="url(#clip0)">
<rect width="1600" height="900" fill="#FAFAFC" transform="translate(-876 -330)"/>
<g id="Group" opacity="0.5">
<g id="Group_2">
</g>
</g>
<g id="card_1">
<g id="Rectangle 3.9" filter="url(#filter0_d)">
<rect width="263" height="362" rx="50" transform="translate(-52 -42)" fill="white"/>
</g>
<g id="familiarity">
<path id="Vector" d="M68.3111 85.7025L4.18173 48.6933C-0.651208 45.905 -1.89662 30.672 3.67985 27.4469L66.443 2.66881C72.0195 -0.556251 80.4678 -0.909428 85.2915 1.8881L150.722 28.1626C155.555 30.9508 153.613 46.5185 148.036 49.7435L87.1596 84.8939C81.5831 88.1375 73.1441 88.4907 68.3111 85.7025Z" transform="translate(2.09033 46.6551)" fill="white" stroke="#DCDCE6" stroke-width="2" stroke-miterlimit="10"/>
<path id="Vector_2" d="M67.3934 85.7025L3.26397 48.6933C-1.56897 45.905 -0.964857 41.0349 4.61161 37.8099L65.4881 2.66881C71.0646 -0.556251 79.5129 -0.909428 84.3366 1.8881L148.466 38.888C153.29 41.6762 152.686 46.5463 147.109 49.7714L86.2326 84.9218C80.6654 88.1282 72.2263 88.4907 67.3934 85.7025Z" transform="translate(3.00977 35.0189)" fill="white" stroke="#DCDCE6" stroke-width="2" stroke-miterlimit="10"/>
<path id="Vector_3" d="M26.1472 32.8157L1.60147 18.6421C-0.257357 17.5733 -0.722064 11.7366 1.41558 10.5098L25.4037 1.02049C27.5413 -0.215633 30.7664 -0.34575 32.6159 0.723074L57.7101 10.7886C59.5689 11.8574 58.8161 17.8243 56.6784 19.0511L33.3595 32.509C31.2218 33.7451 27.9968 33.8845 26.1472 32.8157Z" transform="translate(47.5552 40.5428)" fill="white" stroke="#DCDCE6" stroke-width="2" stroke-miterlimit="10"/>
<path id="Vector_4" d="M25.7978 32.8125L1.25204 18.6483C-0.60678 17.5795 -0.365132 15.7114 1.77252 14.4752L25.0543 1.01735C27.1919 -0.209472 30.417 -0.348884 32.2665 0.71994L56.8402 14.8935C58.699 15.9623 58.4573 17.8211 56.3197 19.0572L33.01 32.5151C30.8724 33.7512 27.6473 33.8814 25.7978 32.8125Z" transform="translate(47.9038 36.0848)" fill="white" stroke="#DCDCE6" stroke-width="2" stroke-miterlimit="10"/>
<path id="Vector_5" d="M26.1431 32.8157L1.60668 18.6421C-0.252143 17.5733 -0.726142 11.7459 1.4115 10.5098L25.4275 1.02048C27.5651 -0.215634 30.7995 -0.345752 32.649 0.723072L57.7431 10.7886C59.602 11.8574 58.8584 17.8243 56.7208 19.0604L33.3647 32.4904C31.227 33.7451 27.9927 33.8845 26.1431 32.8157Z" transform="translate(13.9521 59.9861)" fill="white" stroke="#DCDCE6" stroke-width="2" stroke-miterlimit="10"/>
<path id="Vector_6" d="M25.7894 32.8079L1.25291 18.6437C-0.605918 17.5748 -0.364269 15.7067 1.76408 14.4799L25.0737 1.022C27.2114 -0.214115 30.4457 -0.344231 32.2953 0.715299L56.7946 14.8888C58.6534 15.9576 58.421 17.8258 56.2834 19.0526L33.0109 32.5105C30.8733 33.7466 27.6389 33.8767 25.7894 32.8079Z" transform="translate(14.3052 55.5327)" fill="white" stroke="#DCDCE6" stroke-width="2" stroke-miterlimit="10"/>
<path id="Vector_7" d="M25.7978 32.8125L1.25204 18.6483C-0.606781 17.5795 -0.365129 15.7114 1.77252 14.4752L25.0822 1.01735C27.2198 -0.209472 30.4542 -0.348883 32.3037 0.71994L56.8402 14.8935C58.699 15.9623 58.4573 17.8211 56.3197 19.0572L32.9915 32.5151C30.8817 33.7512 27.6473 33.8814 25.7978 32.8125Z" transform="translate(83.6479 62.0432)" fill="#DCDCE6"/>
<path id="Vector_8" d="M56.4414 18.9829L32.2767 5.04171C30.4178 3.97288 27.2021 4.11229 25.0644 5.33912L1.76408 18.7877C1.72029 18.8101 1.67967 18.8383 1.64326 18.8714L1.2529 18.639C-0.605921 17.5795 -0.364271 15.7114 1.76408 14.4752L25.0737 1.01735C27.2114 -0.209472 30.4457 -0.348883 32.286 0.71994L56.8317 14.8935C58.6441 15.9344 58.4675 17.7561 56.4414 18.9829Z" transform="translate(83.6394 62.0432)" fill="#D0D0D6"/>
<path id="Vector_9" d="M26.1472 32.8125L1.60147 18.6483C-0.257358 17.5795 -0.722061 11.7428 1.41559 10.5066L25.4316 1.01735C27.5692 -0.209471 30.8036 -0.348882 32.6531 0.719941L57.7472 10.7948C59.6061 11.8636 58.8532 17.8211 56.7156 19.0572L33.3409 32.5151C31.2311 33.7512 27.9968 33.8814 26.1472 32.8125Z" transform="translate(83.3013 47.6746)" fill="url(#paint0_linear)"/>
<path id="Vector_10" d="M25.7978 32.8157L1.25204 18.6421C-0.606781 17.5733 -0.365129 15.7145 1.77252 14.4784L25.0822 1.02048C27.2198 -0.215635 30.4542 -0.345752 32.3037 0.723071L56.8402 14.8687C58.699 15.9375 58.4573 17.8057 56.3197 19.0418L32.9915 32.5275C30.8817 33.7451 27.6473 33.8845 25.7978 32.8157Z" transform="translate(83.6479 43.2195)" fill="white"/>
<path id="Vector_11" d="M24.3761 31.0377L1.17798 17.6914C-0.569309 16.6876 -0.346252 14.9031 1.67057 13.7507L23.7069 0.961958C24.7423 0.383951 25.8988 0.0567948 27.0836 0.00675727C28.2684 -0.0432802 29.4484 0.185194 30.5288 0.67384L53.7641 14.0667C55.5114 15.0797 55.2883 16.8549 53.2715 18.0074L31.198 30.7589C30.1618 31.3354 29.005 31.661 27.8202 31.7094C26.6354 31.7578 25.4558 31.5278 24.3761 31.0377Z" transform="translate(85.248 44.1145)" fill="url(#paint1_linear)"/>
<path id="Vector_12" d="M26.1803 32.7846L1.60668 18.6204C-0.252143 17.5516 -0.726142 11.7149 1.41151 10.4788L25.4647 1.01735C27.6023 -0.20947 30.8367 -0.348882 32.6862 0.719942L57.7803 10.7948C59.6392 11.8636 58.8956 17.8211 56.758 19.0572L33.4019 32.4872C31.2642 33.7234 28.0299 33.8535 26.1803 32.7846Z" transform="translate(49.9753 81.2356)" fill="white" stroke="#DCDCE6" stroke-width="2" stroke-miterlimit="10"/>
<path id="Vector_13" d="M25.8266 32.8157L1.25291 18.6421C-0.605917 17.5826 -0.364271 15.7145 1.76408 14.4784L25.1109 1.02048C27.2486 -0.215633 30.4829 -0.345751 32.3324 0.723073L56.8782 14.8873C58.737 15.9561 58.4954 17.8242 56.3577 19.0604L33.0481 32.5182C30.9104 33.7451 27.6761 33.8845 25.8266 32.8157Z" transform="translate(50.3303 76.7527)" fill="white" stroke="#DCDCE6" stroke-width="2" stroke-miterlimit="10"/>
</g>
</g>
</g>
<defs>
<filter id="filter0_d" x="-92" y="-62" width="343" height="442" filterUnits="userSpaceOnUse" color-interpolation-filters="sRGB">
<feFlood flood-opacity="0" result="BackgroundImageFix"/>
<feColorMatrix in="SourceAlpha" type="matrix" values="0 0 0 0 0 0 0 0 0 0 0 0 0 0 0 0 0 0 255 0"/>
<feOffset dy="20"/>
<feGaussianBlur stdDeviation="20"/>
<feColorMatrix type="matrix" values="0 0 0 0 0.5185 0 0 0 0 0.58255 0 0 0 0 0.61 0 0 0 0.05 0"/>
<feBlend mode="normal" in2="BackgroundImageFix" result="effect1_dropShadow"/>
<feBlend mode="normal" in="SourceGraphic" in2="effect1_dropShadow" result="shape"/>
</filter>
<linearGradient id="paint0_linear" x2="1" gradientUnits="userSpaceOnUse" gradientTransform="translate(0.00287847 -12.6032) scale(58.7481)">
<stop stop-color="#2F60ED"/>
<stop offset="1" stop-color="#3392FF"/>
</linearGradient>
<linearGradient id="paint1_linear" x2="1" gradientUnits="userSpaceOnUse" gradientTransform="translate(-0.00236609 -11.5851) scale(54.9096)">
<stop stop-color="#2F80ED"/>
<stop offset="1" stop-color="#33ADFF"/>
</linearGradient>
<clipPath id="clip0">
<rect width="1600" height="900" fill="white" transform="translate(-876 -330)"/>
</clipPath>
</defs>
</svg>
